<svg height="512" viewBox="0 0 64 64" width="512" xmlns="http://www.w3.org/2000/svg"><g id="_24-Vegetables" data-name="24-Vegetables"><circle cx="32" cy="35" fill="#ffa426" r="15"/><path d="m21 35a14.992 14.992 0 0 1 13-14.851 15 15 0 1 0 0 29.7 14.992 14.992 0 0 1 -13-14.849z" fill="#fe8205"/><path d="m32 20a14.99 14.99 0 0 0 -2 .149 14.983 14.983 0 0 1 0 29.7 14.993 14.993 0 1 0 2-29.849z" fill="#ffc247"/><path d="m37.752 14.841c1.548-1.541 4.342-6.841 2.797-8.39s-6.849 1.249-8.39 2.797a3.955 3.955 0 0 0 5.593 5.593z" fill="#a5e887"/><path d="m37.752 11.841a3.956 3.956 0 0 1 -6.456-1.3 3.955 3.955 0 0 0 6.456 4.3c1.495-1.494 4.151-6.5 2.921-8.219a14.936 14.936 0 0 1 -2.921 5.219z" fill="#86c983"/><path d="m38.707 9.707-1.414-1.414-7.293 7.295a9.446 9.446 0 0 0 -7-2.588v2c7.871 0 8 7.676 8 8v1h2v-1a12.391 12.391 0 0 0 -1.749-5.837z" fill="#98ba5c"/><path d="m32 46a11.013 11.013 0 0 1 -11-11h2a9.011 9.011 0 0 0 9 9z" fill="#f5e3a7"/><path d="m21 31h2v2h-2z" fill="#f5e3a7"/><path d="m38 27h2v2h-2z" fill="#f5e3a7"/><path d="m42 31h2v2h-2z" fill="#f5e3a7"/><path d="m38 31h2v2h-2z" fill="#f5e3a7"/><path d="m13 30a19.087 19.087 0 0 1 5.01.97c1.68.51 2.99 1.03 2.99 1.03l-1.46.73-2.54 1.27 2 3-6-2-6 2 2-3-2.54-1.27-1.46-.73s4.68-1.87 7.7-1.99c.1-.01.2-.01.3-.01z" fill="#a5e887"/><path d="m25 41a8.972 8.972 0 0 1 -.7 3.48l-4.3.52a5 5 0 0 0 -5 5h-5a9 9 0 0 1 -3.54-17.27l2.54 1.27-2 3 6-2 6 2-2-3 2.54-1.27a8.992 8.992 0 0 1 5.46 8.27z" fill="#ff475a"/><path d="m19.54 34.73a8.982 8.982 0 0 1 5.39 7.34 8.923 8.923 0 0 0 -5.39-9.34l-2.54 1.27 1 1.5z" fill="#f03049"/><path d="m7 39 6-2 6 2-1.714-2.571-4.286-1.429-4.286 1.429z" fill="#f03049"/><path d="m3.64 36.64a8.959 8.959 0 0 1 2.82-1.91l1.54.77 1-1.5-2.54-1.27a8.954 8.954 0 0 0 -5.401 9.27 8.945 8.945 0 0 1 2.581-5.36z" fill="#f03049"/><path d="m53 50a8.016 8.016 0 0 1 -7 7.94 8.262 8.262 0 0 1 -1 .06 6.632 6.632 0 0 1 -1-.07 6.171 6.171 0 0 1 -.84-.15l-5.16-.62-2-.24-11-1.32-5-.6a5 5 0 0 1 0-10l4.3-.52 4.7-.56 2-.24 9-1.08 5-.6a7.987 7.987 0 0 1 5.29 2 7.418 7.418 0 0 1 .91.95 7.287 7.287 0 0 1 .8 1.19 7.866 7.866 0 0 1 1 3.86z" fill="#ffc247"/><path d="m63 48v4h-7l4 2-1 3-7.8-1.95a7.979 7.979 0 0 0 1.8-5.05 7.866 7.866 0 0 0 -1-3.86 7.287 7.287 0 0 0 -.8-1.19l.8-.2 7-1.75 1 3-4 2z" fill="#a5e887"/><g fill="#ff9500"><path d="m23 55.36v-5.36h2v5.6z"/><path d="m31 43.68v5.32h-2v-5.08z"/><path d="m38 51v6.16l-2-.24v-5.92z"/><path d="m42 42.36v5.64h-2v-5.4z"/><path d="m44 57.93v-3.93h2v3.94z"/><path d="m29 51h2v2h-2z"/><path d="m44 50h2v2h-2z"/></g><path d="m12 33a17.345 17.345 0 0 0 -.283-2.806 6.727 6.727 0 0 0 -1.424-3.487l1.414-1.414a8.36 8.36 0 0 1 1.979 4.546 18.986 18.986 0 0 1 .314 3.161z" fill="#98ba5c"/><path d="m53 50a8.016 8.016 0 0 1 -7 7.94 8.262 8.262 0 0 1 -1 .06 6.632 6.632 0 0 1 -1-.07 6.171 6.171 0 0 1 -.84-.15l-5.16-.62-2-.24-11-1.32-5-.6a4.947 4.947 0 0 1 -4.75-6.5 5.007 5.007 0 0 0 4.75 3.5l5 .6 11 1.32 2 .24 5.16.62a6.171 6.171 0 0 0 .84.15 6.632 6.632 0 0 0 1 .07 8.262 8.262 0 0 0 1-.06 7.951 7.951 0 0 0 5.2-2.89 8.066 8.066 0 0 0 1.65-3.52 7.965 7.965 0 0 1 .15 1.47z" fill="#ffa426"/><path d="m25 52.6v3l-2-.24v-3z" fill="#fe8205"/><path d="m31 43.68v5.32h-2v-5.08z" fill="#ff9500"/><path d="m38 54.16v3l-2-.24v-3z" fill="#fe8205"/><path d="m42 42.36v5.64h-2v-5.4z" fill="#ff9500"/><path d="m46 54.94v3l-2-.01v-3a6.632 6.632 0 0 0 1 .07 8.262 8.262 0 0 0 1-.06z" fill="#fe8205"/><path d="m29 51h2v2h-2z" fill="#ff9500"/><path d="m44 50h2v2h-2z" fill="#ff9500"/><path d="m49.33 40.27a21.711 21.711 0 0 0 -3.66.91 12.19 12.19 0 0 0 -2.24 1.01l-2.43.29-4.66.56-1.34-1.34 2.87-2.87c2.15-2.15 2.86-7.16 2.86-7.16a6.091 6.091 0 0 0 2.11 1.37 5.005 5.005 0 0 0 1.48 3.64 4.937 4.937 0 0 0 2.38 1.33v.01a4.872 4.872 0 0 0 1.26.14 6.091 6.091 0 0 0 1.37 2.11z" fill="#98ba5c"/><path d="m47.96 38.16a4.872 4.872 0 0 1 -1.26-.14v-.01c-.115-.026-.227-.069-.34-.1a21.6 21.6 0 0 0 -2.89.774 12.19 12.19 0 0 0 -2.24 1.01l-2.43.29-2.364.284c-1.045 1.04-1.436 1.432-1.436 1.432l1.34 1.34 4.66-.56 2.43-.29a12.19 12.19 0 0 1 2.24-1.01 21.711 21.711 0 0 1 3.66-.91 6.091 6.091 0 0 1 -1.37-2.11z" fill="#7a9e51"/><path d="m61.52 26.65a5.088 5.088 0 0 1 0 7.17 4.945 4.945 0 0 1 -1.89 1.17 6.078 6.078 0 0 1 -11.67 3.17 4.872 4.872 0 0 1 -1.26-.14v-.01a4.937 4.937 0 0 1 -2.38-1.33 5.005 5.005 0 0 1 -1.48-3.64 6.075 6.075 0 0 1 -2.11-9.97c.05-.05.1-.1.16-.15a6.054 6.054 0 0 1 5.12-1.55 4.945 4.945 0 0 1 1.17-1.89 5.088 5.088 0 0 1 7.17 0c.1.1.17.22.26.32a5.068 5.068 0 0 1 6.59 6.59c.1.09.22.16.32.26z" fill="#a5e887"/><path d="m61.52 26.65c-.1-.1-.22-.17-.32-.26a5.068 5.068 0 0 0 -6.59-6.59c-.09-.1-.16-.22-.26-.32a5.073 5.073 0 0 0 -5.935-.877 5.025 5.025 0 0 1 1.235.877c.1.1.17.22.26.32a5.068 5.068 0 0 1 6.59 6.59c.1.09.22.16.32.26a5.088 5.088 0 0 1 0 7.17 4.945 4.945 0 0 1 -1.89 1.17 6.056 6.056 0 0 1 -3.647 6.581 6.072 6.072 0 0 0 8.347-6.581 4.945 4.945 0 0 0 1.89-1.17 5.088 5.088 0 0 0 0-7.17z" fill="#86c983"/><path d="m29 51h2v2h-2z"/><path d="m44 50h2v2h-2z"/><path d="m63 47h-2.764l.211-.1a1 1 0 0 0 .5-1.211l-1-3a1 1 0 0 0 -1.19-.654l-7.208 1.8c-.189-.2-.387-.4-.6-.583a9.016 9.016 0 0 0 -2.9-1.71c.394-.091.726-.158.971-.2a7.089 7.089 0 0 0 9.616-.359 7 7 0 0 0 2.064-5.36 5.848 5.848 0 0 0 1.528-1.1 6.094 6.094 0 0 0 .127-8.447 6.067 6.067 0 0 0 -7.434-7.434 6.093 6.093 0 0 0 -8.449.129 5.838 5.838 0 0 0 -1.1 1.526 7.036 7.036 0 0 0 -4.549 1.371 15.845 15.845 0 0 0 -8.642-2.663 10.432 10.432 0 0 0 -.933-1.846l.979-.978a4.94 4.94 0 0 0 6.225-.636 15.331 15.331 0 0 0 2.777-4.521c1-2.46 1.014-4.286.021-5.285s-2.821-.98-5.281.025a15.321 15.321 0 0 0 -4.519 2.775 4.941 4.941 0 0 0 -.638 6.228l-.826.826a9.48 9.48 0 0 0 -6.986-2.593v2c3.425 0 5.794 1.387 7.065 4.119a15.906 15.906 0 0 0 -13.127 10.512 18.054 18.054 0 0 0 -3.435-.6 7.683 7.683 0 0 0 -1.8-3.735l-1.414 1.414a5.485 5.485 0 0 1 1.188 2.418 35.592 35.592 0 0 0 -6.852 1.946.994.994 0 0 0 -.274 1.685 10.06 10.06 0 0 0 -1.42 1.175 9.893 9.893 0 0 0 -2.931 7.066 10.011 10.011 0 0 0 10 10h4.09a6.005 6.005 0 0 0 5.847 5l23.049 2.767a8.924 8.924 0 0 0 8.551-2.6l7.221 1.806a1.01 1.01 0 0 0 .242.027 1 1 0 0 0 .947-.684l1-3a1 1 0 0 0 -.5-1.211l-.211-.1h2.764a1 1 0 0 0 1-1v-4.005a1 1 0 0 0 -1-1zm-26.3-5.013-.287-.287 2.163-2.163c1.563-1.563 2.418-4.346 2.829-6.113.154.093.3.2.462.279a6.042 6.042 0 0 0 1.744 3.684 5.939 5.939 0 0 0 2.852 1.594v.01a6.051 6.051 0 0 0 .837.143c.08.162.185.306.277.46a21.846 21.846 0 0 0 -2.23.639 13.427 13.427 0 0 0 -2.2.982zm4.872-18.338a5.044 5.044 0 0 1 4.278-1.292.99.99 0 0 0 1.1-.658 3.955 3.955 0 0 1 .931-1.51 4.092 4.092 0 0 1 5.812.07c.056.074.113.147.174.215a1 1 0 0 0 1.111.254 4.068 4.068 0 0 1 5.29 5.29 1 1 0 0 0 .254 1.111c.068.061.141.118.285.226a4.09 4.09 0 0 1 0 5.758 3.946 3.946 0 0 1 -1.511.933 1 1 0 0 0 -.658 1.1 5.078 5.078 0 0 1 -9.746 2.654 1 1 0 0 0 -.932-.637h-.023a3.528 3.528 0 0 1 -1-.112l-.013-.013a3.937 3.937 0 0 1 -1.9-1.066 3.98 3.98 0 0 1 -1.183-2.914 1 1 0 0 0 -.637-.947 5.075 5.075 0 0 1 -1.759-8.337c.027-.032.055-.059.128-.125zm-9.572-11.604a2.926 2.926 0 0 1 .871-2.09 13.5 13.5 0 0 1 3.86-2.338 6.953 6.953 0 0 1 2.469-.617.963.963 0 0 1 .64.154c.231.234.3 1.256-.458 3.116a13.5 13.5 0 0 1 -2.338 3.86 3.012 3.012 0 0 1 -3.329.567l4.995-4.995-1.417-1.409-5.005 5.007a2.916 2.916 0 0 1 -.288-1.255zm-1.261 9.021a10.179 10.179 0 0 1 .261 1.934v1h2v-1a11.319 11.319 0 0 0 -.225-1.97 13.843 13.843 0 0 1 6.612 2.077 7.1 7.1 0 0 0 .278 8.872c-.278 1.557-1.082 4.723-2.5 6.144l-2.87 2.87a.987.987 0 0 0 -.081 1.292l-8.492 1.015a9.894 9.894 0 0 0 -4.091-10.537.992.992 0 0 0 -.261-1.695c-.052-.02-1.093-.433-2.511-.887a13.914 13.914 0 0 1 11.878-9.115zm-18.881 10.034a17.26 17.26 0 0 1 .142 1.9h2a18.439 18.439 0 0 0 -.131-1.943 21.1 21.1 0 0 1 3.441.743c.4.117.788.238 1.145.354l-1.893.948a1 1 0 0 0 -.416 1.418c.007.011.044.074.052.085l.35.524-3.232-1.077a.991.991 0 0 0 -.632 0l-3.235 1.078.383-.575a1 1 0 0 0 -.385-1.45l-1.9-.95a26.006 26.006 0 0 1 4.311-1.055zm2.232 17.9h-4.09a8.009 8.009 0 0 1 -8-8 7.907 7.907 0 0 1 2.347-5.652 8.009 8.009 0 0 1 2.1-1.5l1.087.544-1.366 2.053a1 1 0 0 0 1.148 1.5l5.684-1.891 5.684 1.894a1 1 0 0 0 1.148-1.5l-1.372-2.059 1.075-.538a7.935 7.935 0 0 1 4.036 9.71l-3.634.439a6.006 6.006 0 0 0 -5.847 5zm31.91 7.919v-2.919h-2v2.907c-.2-.03-.405-.051-.609-.1a1.1 1.1 0 0 0 -.112-.021l-5.279-.633v-5.153h-2v4.913l-11-1.32v-4.593h-2v4.353l-2.881-.346a.939.939 0 0 0 -.119-.007 4 4 0 0 1 0-8 .966.966 0 0 0 .12-.007l4.3-.519 4.58-.549v4.075h2v-4.315l9-1.079v4.394h2v-4.633l3.059-.367a7.019 7.019 0 0 1 4.571 1.751 6.652 6.652 0 0 1 .8.841 6.463 6.463 0 0 1 .694 1.037 6.986 6.986 0 0 1 -5.124 10.29zm16-5.919h-6a1 1 0 0 0 -.447 1.9l3.224 1.612-.433 1.3-5.511-1.378a8.97 8.97 0 0 0 .044-8.77c-.017-.03-.034-.054-.051-.084l5.518-1.38.433 1.3-3.224 1.612a1 1 0 0 0 .447 1.888h6z"/><path d="m21 28h2v2h-2z"/><path d="m25 28h2v2h-2z"/><path d="m25 32h2v2h-2z"/></g></svg>